# xmcd
#
# Track frame offsets: 
#        150
#        20195
#        40200
#        63255
#        84062
#        119397
#        140755
#        163210
#        185845
#        204002
#
# Disc length: 2987 seconds
#
# Revision: 0
# Processed by: cddbd v1.4PL0 Copyright (c) Steve Scherf et al.
# Submitted via: ExactAudioCopy v0.95a3
#
DISCID=890ba90a
DTITLE=夏川里美 - 天空的風景
DYEAR=2003
DGENRE=Blues
TTITLE0=滿天星斗
TTITLE1=路標
TTITLE2=Salala
TTITLE3=遙遠
TTITLE4=甘蔗園(第17屆日本唱片大賞金賞作品) 
TTITLE5=鉛筆畫的眸子
TTITLE6=雖然難以對人啟齒
TTITLE7=美麗的島嶼
TTITLE8=月娘最美的時候
TTITLE9=給心愛的人
EXTD=
EXTT0=
EXTT1=
EXTT2=
EXTT3=
EXTT4=
EXTT5=
EXTT6=
EXTT7=
EXTT8=
EXTT9=
PLAYORDER=
